<?xml version="1.0" encoding="iso-8859-1"?>
<!-- Uploaded to: SVG Repo, www.svgrepo.com, Generator: SVG Repo Mixer Tools -->
<svg height="800px" width="800px" version="1.1" id="Layer_1" xmlns="http://www.w3.org/2000/svg" xmlns:xlink="http://www.w3.org/1999/xlink" 
	 viewBox="0 0 512 512" xml:space="preserve">
<polygon style="fill:#FFEFCA;" points="469.425,289.145 469.425,408.945 44.786,408.945 44.786,65.067 469.425,65.067 
	469.425,241.865 "/>
<g>
	<path style="fill:#A0758E;" d="M44.786,65.067h-13.27C19.301,65.067,9.4,55.166,9.4,42.951l0,0
		c0-12.215,9.902-22.117,22.117-22.117h13.27V65.067z"/>
	<path style="fill:#A0758E;" d="M482.695,65.067h-13.27V20.834h13.27c12.215,0,22.117,9.902,22.117,22.117l0,0
		C504.812,55.166,494.91,65.067,482.695,65.067z"/>
</g>
<path style="fill:#FFDFA1;" d="M41.463,28.651H468.32V73.51H41.463C41.463,73.51,41.463,29.19,41.463,28.651z"/>
<path style="fill:#A0758E;" d="M454.445,453.363H55.344c-14.053,0-25.486-8.516-25.486-18.984s11.433-18.984,25.486-18.984h399.101
	c14.053,0,25.486,8.516,25.486,18.984S468.498,453.363,454.445,453.363z"/>
<g>
	<polygon style="fill:#FFFFFF;" points="150.074,309.085 150.074,367.775 110.118,367.775 110.118,269.503 150.074,269.503 
		150.074,276.85 	"/>
	<polygon style="fill:#FFFFFF;" points="325.202,356.882 325.202,367.775 285.245,367.775 285.245,317.3 325.202,317.3 
		325.202,324.647 	"/>
</g>
<g>
	<polygon style="fill:#FFDFA1;" points="412.805,356.882 412.805,367.775 372.848,367.775 372.848,317.3 412.805,317.3 
		412.805,324.647 	"/>
	<polygon style="fill:#FFDFA1;" points="237.706,282.754 237.706,367.775 197.75,367.775 197.75,216.659 237.706,216.659 
		237.706,244.091 	"/>
</g>
<path style="fill:#FED1A9;" d="M413.324,181.698c0.644-21.563-8.316-43.341-29.342-57.238l-37.784,62.949l-65.806-25.163
	c-1.828,6.18-2.81,12.724-2.81,19.497c0,37.895,30.72,68.615,68.615,68.615C386.518,250.359,412.29,216.307,413.324,181.698z"/>
<path style="fill:#826075;" d="M481.59,439.171c-5.72,8.603-9.435,13.786-19.805,13.786l-405.312,0.357
	c-9.571,0-17.334-5.361-23.334-15.528H481.59"/>
<path style="fill:#D3AEC3;" d="M479.234,430.972l-447.997-0.826c6.194-7.065,13.06-9.937,22.99-9.937h402.889
	c10.376,0,16.594,4.079,22.18,10.763"/>
<path style="fill:#FCC973;" d="M469.425,65.067H44.786v15.078h424.639C469.425,80.145,469.425,64.734,469.425,65.067z"/>
<path d="M30.41,81.102h4.976V414.87c-5.417,4.766-8.847,11.743-8.847,19.509c0,14.329,11.658,25.987,25.987,25.987h119.837v23.059
	c0,4.58,3.712,8.294,8.294,8.294h150.685c4.581,0,8.294-3.713,8.294-8.294v-23.059h29.339c4.581,0,8.294-3.713,8.294-8.294
	s-3.712-8.294-8.294-8.294H52.527c-5.183,0-9.4-4.217-9.4-9.4s4.217-9.4,9.4-9.4h406.946c5.183,0,9.4,4.217,9.4,9.4
	s-4.217,9.4-9.4,9.4h-53.384c-4.581,0-8.294,3.713-8.294,8.294s3.712,8.294,8.294,8.294h53.384
	c14.329,0,25.987-11.658,25.987-25.987c0-7.766-3.429-14.743-8.847-19.509V296.886c0-4.58-3.712-8.294-8.294-8.294
	s-8.294,3.713-8.294,8.294v111.507h-0.553H52.527h-0.553V81.102h408.052v168.503c0,4.58,3.712,8.294,8.294,8.294
	s8.294-3.713,8.294-8.294V81.102h4.976c16.768,0,30.41-13.642,30.41-30.41s-13.643-30.41-30.41-30.41h-4.423h-8.847H43.68h-8.847
	H30.41C13.643,20.281,0,33.924,0,50.691S13.643,81.102,30.41,81.102z M323.049,475.132H188.951v-14.765h134.098V475.132z
	 M51.974,64.514V36.868h408.052v27.646H51.974z M477.166,36.868h4.423c7.622,0,13.823,6.2,13.823,13.823s-6.2,13.823-13.823,13.823
	h-4.976V36.868H477.166z M30.41,36.868h4.423h0.553v27.646H30.41c-7.622,0-13.823-6.2-13.823-13.823S22.788,36.868,30.41,36.868z"/>
<path d="M140.727,285.538c0.471,4.135,3.981,7.347,8.241,7.347c4.581,0,8.294-3.713,8.294-8.294v-7.347
	c0-4.58-3.712-8.294-8.294-8.294h-39.956c-4.581,0-8.294,3.713-8.294,8.294v98.272c0,4.58,3.712,8.294,8.294,8.294h39.956
	c4.581,0,8.294-3.713,8.294-8.294v-58.689c0-4.58-3.712-8.294-8.294-8.294s-8.294,3.713-8.294,8.294v50.395h-23.368v-81.684H140.727
	z"/>
<path d="M315.855,333.334c0.471,4.135,3.981,7.347,8.241,7.347c4.581,0,8.294-3.713,8.294-8.294v-7.347
	c0-4.58-3.712-8.294-8.294-8.294h-39.957c-4.581,0-8.294,3.713-8.294,8.294v50.476c0,4.58,3.712,8.294,8.294,8.294h39.957
	c4.581,0,8.294-3.713,8.294-8.294v-10.892c0-4.58-3.712-8.294-8.294-8.294c-4.581,0-8.294,3.713-8.294,8.294v2.599h-23.37v-33.888
	H315.855z"/>
<path d="M403.458,333.334c0.471,4.135,3.981,7.347,8.241,7.347c4.581,0,8.294-3.713,8.294-8.294v-7.347
	c0-4.58-3.712-8.294-8.294-8.294h-39.957c-4.581,0-8.294,3.713-8.294,8.294v50.476c0,4.58,3.712,8.294,8.294,8.294h39.957
	c4.581,0,8.294-3.713,8.294-8.294v-10.892c0-4.58-3.712-8.294-8.294-8.294c-4.581,0-8.294,3.713-8.294,8.294v2.599h-23.37v-33.888
	H403.458z"/>
<path d="M236.6,260.126c4.581,0,8.294-3.713,8.294-8.294v-27.433c0-4.58-3.712-8.294-8.294-8.294h-39.957
	c-4.581,0-8.294,3.713-8.294,8.294v151.116c0,4.58,3.712,8.294,8.294,8.294H236.6c4.581,0,8.294-3.713,8.294-8.294v-85.02
	c0-4.58-3.712-8.294-8.294-8.294s-8.294,3.713-8.294,8.294v76.726h-23.37V232.692h23.37v19.14
	C228.307,256.412,232.019,260.126,236.6,260.126z"/>
<path d="M387.448,125.282c-1.885-1.247-4.201-1.669-6.407-1.169c-2.206,0.501-4.113,1.88-5.276,3.82L341.56,184.92l-59.311-22.68
	c-2.159-0.825-4.564-0.712-6.636,0.312c-2.072,1.024-3.623,2.866-4.28,5.082c-2.09,7.067-3.151,14.419-3.151,21.85
	c0,42.408,34.501,76.908,76.909,76.908c29.663,0,56.167-16.573,69.171-43.252c2.006-4.117,0.296-9.082-3.822-11.088
	c-4.12-2.008-9.081-0.295-11.089,3.822c-10.201,20.93-30.991,33.931-54.259,33.931c-33.261,0-60.322-27.06-60.322-60.321
	c0-2.79,0.19-5.563,0.567-8.305l56.792,21.717c3.757,1.434,8.003-0.029,10.073-3.479l33.006-54.99
	c12.782,11.37,20.205,27.667,20.205,45.056c0,4.58,3.712,8.294,8.294,8.294c4.581,0,8.294-3.713,8.294-8.294
	C422.001,163.581,409.085,139.579,387.448,125.282z"/>
<path d="M93.049,136.978h88.323c4.581,0,8.294-3.713,8.294-8.294s-3.712-8.294-8.294-8.294H93.049c-4.581,0-8.294,3.713-8.294,8.294
	S88.468,136.978,93.049,136.978z"/>
<path d="M189.666,162.943c0-4.58-3.712-8.294-8.294-8.294H93.049c-4.581,0-8.294,3.713-8.294,8.294s3.712,8.294,8.294,8.294h88.323
	C185.952,171.237,189.666,167.524,189.666,162.943z"/>
</svg>